<?xml version="1.0" encoding="UTF-8"?>
<svg width="40" height="40" viewBox="0 0 40 40" fill="none" xmlns="http://www.w3.org/2000/svg">
  <!-- Neural Network Background -->
  <g opacity="0.2">
    <circle cx="10" cy="10" r="2" fill="#2563EB"/>
    <circle cx="20" cy="8" r="2" fill="#2563EB"/>
    <circle cx="30" cy="10" r="2" fill="#2563EB"/>
    <circle cx="8" cy="20" r="2" fill="#2563EB"/>
    <circle cx="32" cy="20" r="2" fill="#2563EB"/>
    <circle cx="10" cy="30" r="2" fill="#2563EB"/>
    <circle cx="20" cy="32" r="2" fill="#2563EB"/>
    <circle cx="30" cy="30" r="2" fill="#2563EB"/>
    <path d="M10 10L20 8M20 8L30 10M8 20L10 10M32 20L30 10M10 30L8 20M30 30L32 20M20 32L10 30M20 32L30 30" stroke="#2563EB" stroke-width="0.5"/>
  </g>
  
  <!-- Shield Base -->
  <path d="M20 4L8 9V19C8 28 14 34 20 36C26 34 32 28 32 19V9L20 4Z" fill="#2563EB"/>
  
  <!-- AI Brain Icon -->
  <path d="M20 12C17 12 15 14 15 16.5C15 19 17 21 20 21C23 21 25 19 25 16.5C25 14 23 12 20 12ZM20 19C18.3 19 17 17.9 17 16.5C17 15.1 18.3 14 20 14C21.7 14 23 15.1 23 16.5C23 17.9 21.7 19 20 19Z" fill="white"/>
  <path d="M20 23C16 23 13 25 13 28H27C27 25 24 23 20 23Z" fill="white"/>
  
  <!-- Circuit Pattern -->
  <g opacity="0.3">
    <path d="M12 19H10M28 19H30M20 8V6" stroke="white" stroke-width="1"/>
  </g>
</svg>
