<?xml version="1.0" encoding="UTF-8"?>
<svg width="40" height="40" viewBox="0 0 40 40" xmlns="http://www.w3.org/2000/svg">
  <!-- Shield Base -->
  <path d="M20 2L4 8V20C4 30 20 38 20 38C20 38 36 30 36 20V8L20 2Z" fill="#2563eb"/>
  
  <!-- Inner Shield -->
  <path d="M20 4L7 9V19.5C7 27.5 20 34 20 34C20 34 33 27.5 33 19.5V9L20 4Z" fill="#3b82f6"/>
  
  <!-- Lock Body -->
  <rect x="14" y="16" width="12" height="10" rx="2" fill="#ffffff"/>
  
  <!-- Lock Shackle -->
  <path d="M16 16V13C16 10.8 17.8 9 20 9C22.2 9 24 10.8 24 13V16" stroke="#ffffff" stroke-width="2" fill="none"/>
  
  <!-- Neural Network Nodes -->
  <circle cx="16" cy="20" r="1.5" fill="#2563eb"/>
  <circle cx="20" cy="20" r="1.5" fill="#2563eb"/>
  <circle cx="24" cy="20" r="1.5" fill="#2563eb"/>
  <circle cx="18" cy="23" r="1.5" fill="#2563eb"/>
  <circle cx="22" cy="23" r="1.5" fill="#2563eb"/>
  
  <!-- Neural Network Connections -->
  <path d="M16 20L18 23M20 20L18 23M20 20L22 23M24 20L22 23" stroke="#2563eb" stroke-width="0.75"/>
</svg>
